<svg width="99" height="22" fill="none" class="mb-12 md:mb-0"><path d="M0 21.562L8.81 0l3.362 15.186L0 21.562z" fill="#4CA6FF"></path><path d="M17.504 21.562L8.694 0 5.332 15.186l12.172 6.376z" fill="#FF635D"></path><path fill-rule="evenodd" clip-rule="evenodd" d="M8.752 16.977l3.42-1.79L8.947.618 8.81 0l-.253.62-3.224 14.566 3.42 1.791z" fill="#424250"></path><path fill-rule="evenodd" clip-rule="evenodd" d="M8.752 16.977l3.42-1.79L8.947.618 8.694 0l-.137.62-3.224 14.566 3.42 1.791z" fill="#424250"></path><path d="M29.932 13.32h1.292V7.129h2.342V5.923H27.59v1.205h2.342v6.193zM47.152 13.447c2.258 0 3.855-1.754 3.855-3.825V9.6c0-2.082-1.576-3.805-3.834-3.805-2.259 0-3.855 1.755-3.855 3.826v.021c0 2.082 1.575 3.804 3.834 3.804zm.02-1.204c-1.47 0-2.5-1.184-2.5-2.621V9.6c0-1.437 1.02-2.6 2.48-2.6 1.47 0 2.5 1.184 2.5 2.62v.022c0 1.437-1.02 2.6-2.48 2.6zM61.788 13.32h1.27V8.038l2.301 3.466h.042l2.321-3.487v5.305h1.292V5.923h-1.376l-2.237 3.498-2.237-3.498h-1.376v7.398zM79.994 13.32h1.292V5.924h-1.292v7.398zM95.9 13.447c1.366 0 2.238-.496 2.984-1.31l-.83-.845c-.63.591-1.219.95-2.111.95-1.408 0-2.427-1.172-2.427-2.62V9.6c0-1.448 1.03-2.6 2.416-2.6.851 0 1.47.36 2.07.909l.83-.962c-.704-.676-1.524-1.152-2.89-1.152-2.215 0-3.78 1.723-3.78 3.826v.021c0 2.124 1.596 3.804 3.739 3.804z" fill="#455880"></path></svg>
