<svg width="24" height="24" viewBox="0 0 24 24" fill="none" xmlns="http://www.w3.org/2000/svg">
<path d="M13.8309 9.13909L9.72963 9.13909C9.47036 9.13909 9.24055 9.03892 9.0402 8.83857C8.83985 8.63823 8.73968 8.40842 8.73968 8.14914C8.73968 7.88987 8.83986 7.66006 9.0402 7.45971C9.24055 7.25937 9.47036 7.15919 9.72963 7.15919L16.235 7.15919C16.5179 7.15919 16.7536 7.25347 16.9421 7.44204C17.1307 7.6306 17.225 7.8663 17.225 8.14914L17.225 14.6545C17.225 14.9138 17.1248 15.1436 16.9244 15.344C16.7241 15.5443 16.4943 15.6445 16.235 15.6445C15.9757 15.6445 15.7459 15.5443 15.5456 15.344C15.3452 15.1436 15.2451 14.9138 15.2451 14.6545V10.5533L9.44679 16.3516C9.24644 16.5519 9.01074 16.6521 8.73968 16.6521C8.46862 16.6521 8.23292 16.5519 8.03257 16.3516C7.83223 16.1512 7.73205 15.9155 7.73205 15.6445C7.73205 15.3734 7.83223 15.1377 8.03257 14.9374L13.8309 9.13909Z" fill="white"/>
</svg>
