<svg width="24" height="24" viewBox="0 0 24 24" fill="none" xmlns="http://www.w3.org/2000/svg">
<path d="M12.15 16.65C12.7 16.65 13.1708 16.5208 13.5625 16.2625C13.9542 16.0042 14.15 15.6 14.15 15.05C14.15 14.5667 13.9458 14.175 13.5375 13.875C13.1292 13.575 12.4 13.2333 11.35 12.85C10.3667 12.5 9.64583 12.0833 9.1875 11.6C8.72917 11.1167 8.5 10.4833 8.5 9.7C8.5 9.01667 8.7375 8.39583 9.2125 7.8375C9.6875 7.27917 10.3333 6.91667 11.15 6.75V6.375C11.15 6.14167 11.2375 5.9375 11.4125 5.7625C11.5875 5.5875 11.7917 5.5 12.025 5.5C12.2583 5.5 12.4625 5.5875 12.6375 5.7625C12.8125 5.9375 12.9 6.14167 12.9 6.375V6.75C13.3833 6.78333 13.8292 6.94583 14.2375 7.2375C14.6458 7.52917 14.975 7.88333 15.225 8.3C15.3417 8.48333 15.35 8.67917 15.25 8.8875C15.15 9.09583 14.9833 9.24167 14.75 9.325C14.5333 9.40833 14.3167 9.41667 14.1 9.35C13.8833 9.28333 13.7083 9.15833 13.575 8.975C13.4083 8.775 13.2 8.6125 12.95 8.4875C12.7 8.3625 12.4 8.3 12.05 8.3C11.4667 8.3 11.0208 8.425 10.7125 8.675C10.4042 8.925 10.25 9.26667 10.25 9.7C10.25 10.1333 10.4417 10.475 10.825 10.725C11.2083 10.975 11.9 11.2667 12.9 11.6C14.1 12.0333 14.9 12.5417 15.3 13.125C15.7 13.7083 15.9 14.35 15.9 15.05C15.9 15.5333 15.8167 15.9583 15.65 16.325C15.4833 16.6917 15.2625 17.0042 14.9875 17.2625C14.7125 17.5208 14.3917 17.7292 14.025 17.8875C13.6583 18.0458 13.2667 18.1667 12.85 18.25V18.625C12.85 18.8583 12.7625 19.0625 12.5875 19.2375C12.4125 19.4125 12.2083 19.5 11.975 19.5C11.7417 19.5 11.5375 19.4125 11.3625 19.2375C11.1875 19.0625 11.1 18.8583 11.1 18.625V18.2C10.4667 18.0667 9.925 17.8167 9.475 17.45C9.025 17.0833 8.66667 16.6167 8.4 16.05C8.3 15.8167 8.30417 15.5917 8.4125 15.375C8.52083 15.1583 8.69167 15.0083 8.925 14.925C9.14167 14.8417 9.35833 14.8458 9.575 14.9375C9.79167 15.0292 9.95833 15.175 10.075 15.375C10.3083 15.8083 10.6042 16.1292 10.9625 16.3375C11.3208 16.5458 11.7167 16.65 12.15 16.65ZM12 23.5C10.1333 23.5 8.41667 23.075 6.85 22.225C5.28333 21.375 4 20.2417 3 18.825V20.5C3 20.7833 2.90417 21.0208 2.7125 21.2125C2.52083 21.4042 2.28333 21.5 2 21.5C1.71667 21.5 1.47917 21.4042 1.2875 21.2125C1.09583 21.0208 1 20.7833 1 20.5V16.5C1 16.2167 1.09583 15.9792 1.2875 15.7875C1.47917 15.5958 1.71667 15.5 2 15.5H6C6.28333 15.5 6.52083 15.5958 6.7125 15.7875C6.90417 15.9792 7 16.2167 7 16.5C7 16.7833 6.90417 17.0208 6.7125 17.2125C6.52083 17.4042 6.28333 17.5 6 17.5H4.525C5.325 18.7 6.37917 19.6667 7.6875 20.4C8.99583 21.1333 10.4333 21.5 12 21.5C14.35 21.5 16.3708 20.7167 18.0625 19.15C19.7542 17.5833 20.7167 15.6583 20.95 13.375C20.9833 13.1083 21.1 12.8958 21.3 12.7375C21.5 12.5792 21.7333 12.5 22 12.5C22.2833 12.5 22.525 12.5875 22.725 12.7625C22.925 12.9375 23.0083 13.15 22.975 13.4C22.8583 14.8167 22.4917 16.1375 21.875 17.3625C21.2583 18.5875 20.4583 19.6542 19.475 20.5625C18.4917 21.4708 17.3625 22.1875 16.0875 22.7125C14.8125 23.2375 13.45 23.5 12 23.5ZM12 3.5C9.65 3.5 7.62917 4.28333 5.9375 5.85C4.24583 7.41667 3.28333 9.34167 3.05 11.625C3.01667 11.8917 2.9 12.1042 2.7 12.2625C2.5 12.4208 2.26667 12.5 2 12.5C1.71667 12.5 1.475 12.4125 1.275 12.2375C1.075 12.0625 0.991667 11.85 1.025 11.6C1.14167 10.1833 1.50833 8.8625 2.125 7.6375C2.74167 6.4125 3.54167 5.34583 4.525 4.4375C5.50833 3.52917 6.6375 2.8125 7.9125 2.2875C9.1875 1.7625 10.55 1.5 12 1.5C13.8667 1.5 15.5833 1.925 17.15 2.775C18.7167 3.625 20 4.75833 21 6.175V4.5C21 4.21667 21.0958 3.97917 21.2875 3.7875C21.4792 3.59583 21.7167 3.5 22 3.5C22.2833 3.5 22.5208 3.59583 22.7125 3.7875C22.9042 3.97917 23 4.21667 23 4.5V8.5C23 8.78333 22.9042 9.02083 22.7125 9.2125C22.5208 9.40417 22.2833 9.5 22 9.5H18C17.7167 9.5 17.4792 9.40417 17.2875 9.2125C17.0958 9.02083 17 8.78333 17 8.5C17 8.21667 17.0958 7.97917 17.2875 7.7875C17.4792 7.59583 17.7167 7.5 18 7.5H19.475C18.675 6.3 17.6208 5.33333 16.3125 4.6C15.0042 3.86667 13.5667 3.5 12 3.5Z" fill="#0A0F16"/>
<path d="M12.15 16.65C12.7 16.65 13.1708 16.5208 13.5625 16.2625C13.9542 16.0042 14.15 15.6 14.15 15.05C14.15 14.5667 13.9458 14.175 13.5375 13.875C13.1292 13.575 12.4 13.2333 11.35 12.85C10.3667 12.5 9.64583 12.0833 9.1875 11.6C8.72917 11.1167 8.5 10.4833 8.5 9.7C8.5 9.01667 8.7375 8.39583 9.2125 7.8375C9.6875 7.27917 10.3333 6.91667 11.15 6.75V6.375C11.15 6.14167 11.2375 5.9375 11.4125 5.7625C11.5875 5.5875 11.7917 5.5 12.025 5.5C12.2583 5.5 12.4625 5.5875 12.6375 5.7625C12.8125 5.9375 12.9 6.14167 12.9 6.375V6.75C13.3833 6.78333 13.8292 6.94583 14.2375 7.2375C14.6458 7.52917 14.975 7.88333 15.225 8.3C15.3417 8.48333 15.35 8.67917 15.25 8.8875C15.15 9.09583 14.9833 9.24167 14.75 9.325C14.5333 9.40833 14.3167 9.41667 14.1 9.35C13.8833 9.28333 13.7083 9.15833 13.575 8.975C13.4083 8.775 13.2 8.6125 12.95 8.4875C12.7 8.3625 12.4 8.3 12.05 8.3C11.4667 8.3 11.0208 8.425 10.7125 8.675C10.4042 8.925 10.25 9.26667 10.25 9.7C10.25 10.1333 10.4417 10.475 10.825 10.725C11.2083 10.975 11.9 11.2667 12.9 11.6C14.1 12.0333 14.9 12.5417 15.3 13.125C15.7 13.7083 15.9 14.35 15.9 15.05C15.9 15.5333 15.8167 15.9583 15.65 16.325C15.4833 16.6917 15.2625 17.0042 14.9875 17.2625C14.7125 17.5208 14.3917 17.7292 14.025 17.8875C13.6583 18.0458 13.2667 18.1667 12.85 18.25V18.625C12.85 18.8583 12.7625 19.0625 12.5875 19.2375C12.4125 19.4125 12.2083 19.5 11.975 19.5C11.7417 19.5 11.5375 19.4125 11.3625 19.2375C11.1875 19.0625 11.1 18.8583 11.1 18.625V18.2C10.4667 18.0667 9.925 17.8167 9.475 17.45C9.025 17.0833 8.66667 16.6167 8.4 16.05C8.3 15.8167 8.30417 15.5917 8.4125 15.375C8.52083 15.1583 8.69167 15.0083 8.925 14.925C9.14167 14.8417 9.35833 14.8458 9.575 14.9375C9.79167 15.0292 9.95833 15.175 10.075 15.375C10.3083 15.8083 10.6042 16.1292 10.9625 16.3375C11.3208 16.5458 11.7167 16.65 12.15 16.65ZM12 23.5C10.1333 23.5 8.41667 23.075 6.85 22.225C5.28333 21.375 4 20.2417 3 18.825V20.5C3 20.7833 2.90417 21.0208 2.7125 21.2125C2.52083 21.4042 2.28333 21.5 2 21.5C1.71667 21.5 1.47917 21.4042 1.2875 21.2125C1.09583 21.0208 1 20.7833 1 20.5V16.5C1 16.2167 1.09583 15.9792 1.2875 15.7875C1.47917 15.5958 1.71667 15.5 2 15.5H6C6.28333 15.5 6.52083 15.5958 6.7125 15.7875C6.90417 15.9792 7 16.2167 7 16.5C7 16.7833 6.90417 17.0208 6.7125 17.2125C6.52083 17.4042 6.28333 17.5 6 17.5H4.525C5.325 18.7 6.37917 19.6667 7.6875 20.4C8.99583 21.1333 10.4333 21.5 12 21.5C14.35 21.5 16.3708 20.7167 18.0625 19.15C19.7542 17.5833 20.7167 15.6583 20.95 13.375C20.9833 13.1083 21.1 12.8958 21.3 12.7375C21.5 12.5792 21.7333 12.5 22 12.5C22.2833 12.5 22.525 12.5875 22.725 12.7625C22.925 12.9375 23.0083 13.15 22.975 13.4C22.8583 14.8167 22.4917 16.1375 21.875 17.3625C21.2583 18.5875 20.4583 19.6542 19.475 20.5625C18.4917 21.4708 17.3625 22.1875 16.0875 22.7125C14.8125 23.2375 13.45 23.5 12 23.5ZM12 3.5C9.65 3.5 7.62917 4.28333 5.9375 5.85C4.24583 7.41667 3.28333 9.34167 3.05 11.625C3.01667 11.8917 2.9 12.1042 2.7 12.2625C2.5 12.4208 2.26667 12.5 2 12.5C1.71667 12.5 1.475 12.4125 1.275 12.2375C1.075 12.0625 0.991667 11.85 1.025 11.6C1.14167 10.1833 1.50833 8.8625 2.125 7.6375C2.74167 6.4125 3.54167 5.34583 4.525 4.4375C5.50833 3.52917 6.6375 2.8125 7.9125 2.2875C9.1875 1.7625 10.55 1.5 12 1.5C13.8667 1.5 15.5833 1.925 17.15 2.775C18.7167 3.625 20 4.75833 21 6.175V4.5C21 4.21667 21.0958 3.97917 21.2875 3.7875C21.4792 3.59583 21.7167 3.5 22 3.5C22.2833 3.5 22.5208 3.59583 22.7125 3.7875C22.9042 3.97917 23 4.21667 23 4.5V8.5C23 8.78333 22.9042 9.02083 22.7125 9.2125C22.5208 9.40417 22.2833 9.5 22 9.5H18C17.7167 9.5 17.4792 9.40417 17.2875 9.2125C17.0958 9.02083 17 8.78333 17 8.5C17 8.21667 17.0958 7.97917 17.2875 7.7875C17.4792 7.59583 17.7167 7.5 18 7.5H19.475C18.675 6.3 17.6208 5.33333 16.3125 4.6C15.0042 3.86667 13.5667 3.5 12 3.5Z" fill="black" fill-opacity="0.2"/>
<path d="M12.15 16.65C12.7 16.65 13.1708 16.5208 13.5625 16.2625C13.9542 16.0042 14.15 15.6 14.15 15.05C14.15 14.5667 13.9458 14.175 13.5375 13.875C13.1292 13.575 12.4 13.2333 11.35 12.85C10.3667 12.5 9.64583 12.0833 9.1875 11.6C8.72917 11.1167 8.5 10.4833 8.5 9.7C8.5 9.01667 8.7375 8.39583 9.2125 7.8375C9.6875 7.27917 10.3333 6.91667 11.15 6.75V6.375C11.15 6.14167 11.2375 5.9375 11.4125 5.7625C11.5875 5.5875 11.7917 5.5 12.025 5.5C12.2583 5.5 12.4625 5.5875 12.6375 5.7625C12.8125 5.9375 12.9 6.14167 12.9 6.375V6.75C13.3833 6.78333 13.8292 6.94583 14.2375 7.2375C14.6458 7.52917 14.975 7.88333 15.225 8.3C15.3417 8.48333 15.35 8.67917 15.25 8.8875C15.15 9.09583 14.9833 9.24167 14.75 9.325C14.5333 9.40833 14.3167 9.41667 14.1 9.35C13.8833 9.28333 13.7083 9.15833 13.575 8.975C13.4083 8.775 13.2 8.6125 12.95 8.4875C12.7 8.3625 12.4 8.3 12.05 8.3C11.4667 8.3 11.0208 8.425 10.7125 8.675C10.4042 8.925 10.25 9.26667 10.25 9.7C10.25 10.1333 10.4417 10.475 10.825 10.725C11.2083 10.975 11.9 11.2667 12.9 11.6C14.1 12.0333 14.9 12.5417 15.3 13.125C15.7 13.7083 15.9 14.35 15.9 15.05C15.9 15.5333 15.8167 15.9583 15.65 16.325C15.4833 16.6917 15.2625 17.0042 14.9875 17.2625C14.7125 17.5208 14.3917 17.7292 14.025 17.8875C13.6583 18.0458 13.2667 18.1667 12.85 18.25V18.625C12.85 18.8583 12.7625 19.0625 12.5875 19.2375C12.4125 19.4125 12.2083 19.5 11.975 19.5C11.7417 19.5 11.5375 19.4125 11.3625 19.2375C11.1875 19.0625 11.1 18.8583 11.1 18.625V18.2C10.4667 18.0667 9.925 17.8167 9.475 17.45C9.025 17.0833 8.66667 16.6167 8.4 16.05C8.3 15.8167 8.30417 15.5917 8.4125 15.375C8.52083 15.1583 8.69167 15.0083 8.925 14.925C9.14167 14.8417 9.35833 14.8458 9.575 14.9375C9.79167 15.0292 9.95833 15.175 10.075 15.375C10.3083 15.8083 10.6042 16.1292 10.9625 16.3375C11.3208 16.5458 11.7167 16.65 12.15 16.65ZM12 23.5C10.1333 23.5 8.41667 23.075 6.85 22.225C5.28333 21.375 4 20.2417 3 18.825V20.5C3 20.7833 2.90417 21.0208 2.7125 21.2125C2.52083 21.4042 2.28333 21.5 2 21.5C1.71667 21.5 1.47917 21.4042 1.2875 21.2125C1.09583 21.0208 1 20.7833 1 20.5V16.5C1 16.2167 1.09583 15.9792 1.2875 15.7875C1.47917 15.5958 1.71667 15.5 2 15.5H6C6.28333 15.5 6.52083 15.5958 6.7125 15.7875C6.90417 15.9792 7 16.2167 7 16.5C7 16.7833 6.90417 17.0208 6.7125 17.2125C6.52083 17.4042 6.28333 17.5 6 17.5H4.525C5.325 18.7 6.37917 19.6667 7.6875 20.4C8.99583 21.1333 10.4333 21.5 12 21.5C14.35 21.5 16.3708 20.7167 18.0625 19.15C19.7542 17.5833 20.7167 15.6583 20.95 13.375C20.9833 13.1083 21.1 12.8958 21.3 12.7375C21.5 12.5792 21.7333 12.5 22 12.5C22.2833 12.5 22.525 12.5875 22.725 12.7625C22.925 12.9375 23.0083 13.15 22.975 13.4C22.8583 14.8167 22.4917 16.1375 21.875 17.3625C21.2583 18.5875 20.4583 19.6542 19.475 20.5625C18.4917 21.4708 17.3625 22.1875 16.0875 22.7125C14.8125 23.2375 13.45 23.5 12 23.5ZM12 3.5C9.65 3.5 7.62917 4.28333 5.9375 5.85C4.24583 7.41667 3.28333 9.34167 3.05 11.625C3.01667 11.8917 2.9 12.1042 2.7 12.2625C2.5 12.4208 2.26667 12.5 2 12.5C1.71667 12.5 1.475 12.4125 1.275 12.2375C1.075 12.0625 0.991667 11.85 1.025 11.6C1.14167 10.1833 1.50833 8.8625 2.125 7.6375C2.74167 6.4125 3.54167 5.34583 4.525 4.4375C5.50833 3.52917 6.6375 2.8125 7.9125 2.2875C9.1875 1.7625 10.55 1.5 12 1.5C13.8667 1.5 15.5833 1.925 17.15 2.775C18.7167 3.625 20 4.75833 21 6.175V4.5C21 4.21667 21.0958 3.97917 21.2875 3.7875C21.4792 3.59583 21.7167 3.5 22 3.5C22.2833 3.5 22.5208 3.59583 22.7125 3.7875C22.9042 3.97917 23 4.21667 23 4.5V8.5C23 8.78333 22.9042 9.02083 22.7125 9.2125C22.5208 9.40417 22.2833 9.5 22 9.5H18C17.7167 9.5 17.4792 9.40417 17.2875 9.2125C17.0958 9.02083 17 8.78333 17 8.5C17 8.21667 17.0958 7.97917 17.2875 7.7875C17.4792 7.59583 17.7167 7.5 18 7.5H19.475C18.675 6.3 17.6208 5.33333 16.3125 4.6C15.0042 3.86667 13.5667 3.5 12 3.5Z" fill="black" fill-opacity="0.2"/>
</svg>
