<svg width="24" height="24" viewBox="0 0 24 24" fill="none" xmlns="http://www.w3.org/2000/svg">
<path d="M21.0163 3.37629C20.5848 2.99866 19.976 2.89848 19.4442 3.10656L18.4346 3.49959L2.98288 9.58011C2.59755 9.73424 2.29699 10.0194 2.12745 10.4047C1.96561 10.7823 1.9579 11.2062 2.10433 11.5838C2.29699 12.077 2.72086 12.4316 3.2372 12.5317L7.3217 13.3486V18.4658C7.3217 19.0978 7.69162 19.6603 8.27732 19.8993C8.46999 19.9763 8.67036 20.0226 8.87844 20.0226C9.28689 20.0226 9.67992 19.853 9.96507 19.5679L12.2 17.333L15.6294 20.3462C15.9069 20.5928 16.2691 20.7316 16.6467 20.7316C16.8085 20.7316 16.9704 20.7084 17.1245 20.6545C17.6408 20.4927 18.0416 20.0611 18.1572 19.5293L21.5096 4.88678C21.6406 4.3242 21.4479 3.7462 21.0086 3.36858L21.0163 3.37629ZM7.96906 11.7765L3.96162 10.975L15.1747 6.56682L7.96906 11.7688V11.7765ZM8.99404 18.1884V14.5046L10.9515 16.2309L8.99404 18.1884ZM16.5773 18.9668L9.48726 12.7321L19.6908 5.35689L16.5696 18.9668H16.5773Z" fill="black"/>
</svg>
