<svg width="24" height="24" viewBox="0 0 24 24" fill="none" xmlns="http://www.w3.org/2000/svg">
<path d="M9.63918 13.8309L9.63918 9.72964C9.63918 9.47037 9.539 9.24056 9.33866 9.04021C9.13831 8.83986 8.9085 8.73969 8.64923 8.73969C8.38995 8.73969 8.16014 8.83986 7.9598 9.04021C7.75945 9.24056 7.65928 9.47037 7.65928 9.72964L7.65928 16.235C7.65928 16.5179 7.75356 16.7536 7.94212 16.9421C8.13068 17.1307 8.36638 17.225 8.64923 17.225L15.1546 17.225C15.4139 17.225 15.6437 17.1248 15.844 16.9244C16.0444 16.7241 16.1446 16.4943 16.1446 16.235C16.1446 15.9757 16.0444 15.7459 15.844 15.5456C15.6437 15.3452 15.4139 15.2451 15.1546 15.2451H11.0534L16.8517 9.4468C17.052 9.24645 17.1522 9.01075 17.1522 8.73969C17.1522 8.46863 17.052 8.23293 16.8517 8.03258C16.6513 7.83223 16.4156 7.73206 16.1446 7.73206C15.8735 7.73206 15.6378 7.83223 15.4375 8.03258L9.63918 13.8309Z" fill="white"/>
</svg>
