<svg width="24" height="24" viewBox="0 0 24 24" fill="none" xmlns="http://www.w3.org/2000/svg">
<path fill-rule="evenodd" clip-rule="evenodd" d="M3 7.25603C3 6.70374 3.44772 6.25603 4 6.25603H10.5C11.0523 6.25603 11.5 6.70374 11.5 7.25603C11.5 7.80831 11.0523 8.25603 10.5 8.25603H5V19.256H16V13.756C16 13.2037 16.4477 12.756 17 12.756C17.5523 12.756 18 13.2037 18 13.756V20.256C18 20.8083 17.5523 21.256 17 21.256H4C3.44772 21.256 3 20.8083 3 20.256V7.25603Z" fill="#4C29F2"/>
<path d="M17.741 4.9799H13.6398C13.3805 4.9799 13.1507 4.87973 12.9504 4.67938C12.75 4.47903 12.6498 4.24922 12.6498 3.98995C12.6498 3.73068 12.75 3.50087 12.9504 3.30052C13.1507 3.10017 13.3805 3 13.6398 3L20.1452 3C20.428 3 20.6637 3.09428 20.8523 3.28284C21.0408 3.4714 21.1351 3.70711 21.1351 3.98995V10.4953C21.1351 10.7546 21.0349 10.9844 20.8346 11.1848C20.6343 11.3851 20.4044 11.4853 20.1452 11.4853C19.8859 11.4853 19.6561 11.3851 19.4557 11.1848C19.2554 10.9844 19.1552 10.7546 19.1552 10.4953V6.39411L11.2139 14.4554C11.0135 14.6557 10.7778 14.7559 10.5068 14.7559C10.2357 14.7559 10 14.6557 9.79965 14.4554C9.59931 14.255 9.49913 14.0193 9.49913 13.7483C9.49913 13.4772 9.79965 13.0412 10 12.8408L17.741 4.9799Z" fill="#4C29F2"/>
</svg>
