<svg width="132" height="35" viewBox="0 0 132 35" fill="none" xmlns="http://www.w3.org/2000/svg">
<g clip-path="url(#clip0_215_5330)">
<path d="M47.7793 1.61963V30.3681H51.4534C52.6758 30.3681 53.6667 29.3772 53.6667 28.1548V28.1548C55.7691 29.5153 58.3007 30.3092 61.0261 30.3092C68.3731 30.3092 74.317 24.5386 74.2103 17.4593C74.1072 10.6568 68.34 5.10295 61.2567 4.98634C58.4442 4.9404 55.8279 5.7402 53.6667 7.13839V4.61963C53.6667 2.96277 52.3236 1.61963 50.6667 1.61963H47.7793ZM53.6704 17.8775C53.5343 13.7913 57.0116 10.4519 61.2665 10.5826C65.1203 10.7004 68.2578 13.7147 68.3817 17.4145C68.5178 21.5007 65.0406 24.8401 60.7857 24.7094C56.9318 24.5916 53.7943 21.5773 53.6717 17.8763L53.6704 17.8775Z" fill="#4C29F2"/>
<path d="M88.5287 4.95459C81.2296 4.95459 75.3125 10.7466 75.3125 17.8914C75.3125 25.0362 81.2296 30.8282 88.5287 30.8282C95.8278 30.8282 101.745 25.0362 101.745 17.8914C101.745 10.7466 95.8278 4.95459 88.5287 4.95459ZM88.5287 25.1119C84.4551 25.1119 81.1523 21.8789 81.1523 17.8914C81.1523 13.9039 84.4551 10.6709 88.5287 10.6709C92.6023 10.6709 95.9051 13.9039 95.9051 17.8914C95.9051 21.8789 92.6023 25.1119 88.5287 25.1119Z" fill="#4C29F2"/>
<path d="M13.3559 4.90196C13.3437 4.90196 13.3326 4.90196 13.3204 4.90196C13.2959 4.90196 13.2713 4.90196 13.2456 4.90196C13.2112 4.90196 13.1769 4.90314 13.1413 4.90432C11.5298 4.90903 9.85325 5.1894 8.15832 5.79725C7.35746 6.08469 6.59707 6.44987 5.88574 6.8822V6.8822C5.88574 5.75667 4.97331 4.84424 3.84778 4.84424H8.40404e-05L0 33.5927H2.88693C4.54377 33.5927 5.8869 32.2496 5.88693 30.5927L5.88697 28.1135C7.91304 29.4094 10.3328 30.181 12.9377 30.2269C12.9512 30.2269 12.9647 30.2269 12.9782 30.2269C13.0825 30.2293 13.1879 30.2269 13.2922 30.2269C16.4981 30.2022 19.4329 29.0795 21.7043 27.2289C20.419 25.7634 19.4194 24.0588 18.7903 22.1964C18.7866 22.1846 18.7817 22.1716 18.778 22.1599C17.4682 23.63 15.539 24.5771 13.3793 24.6302C13.286 24.6313 13.1916 24.6337 13.0996 24.6313H13.091C9.01928 24.55 5.76187 21.2917 5.8931 17.3335C6.01574 13.6322 9.15419 10.6189 13.0064 10.4999C13.0947 10.4975 13.183 10.4987 13.2713 10.4987C15.4752 10.5223 17.4473 11.4753 18.7792 12.9702C19.7248 14.0316 20.3491 15.3663 20.5061 16.8329C20.5318 17.0732 20.5453 17.317 20.5453 17.5644C20.5453 17.8118 20.5318 18.0557 20.5061 18.296C20.5122 18.3914 20.5208 18.4856 20.5294 18.5811C20.7464 21.2068 21.795 23.61 23.4274 25.5396C23.4348 25.5478 23.4421 25.5561 23.4495 25.5643C25.0991 23.6288 26.1661 21.2222 26.388 18.5952C26.4113 18.3172 26.4261 18.0356 26.431 17.7529C26.5377 10.7084 20.6532 4.95968 13.3584 4.90314L13.3559 4.90196Z" fill="#4C29F2"/>
<path d="M20.563 18.6269C20.5876 18.3854 20.5999 18.1391 20.5999 17.8916C20.5999 17.6441 20.5863 17.3978 20.563 17.1564V17.154C20.7227 14.3523 21.7939 11.7884 23.4929 9.74485C25.1919 11.7897 26.2632 14.3535 26.4229 17.154V17.1564C26.3983 17.3978 26.386 17.6441 26.386 17.8916C26.386 18.1391 26.3995 18.3854 26.4229 18.6269V18.6293C26.5801 20.1407 27.2165 21.5163 28.1784 22.6072C29.5322 24.1402 31.5346 25.1109 33.7692 25.1109C37.8465 25.1109 41.1536 21.8779 41.1536 17.8916C41.1536 13.9053 37.8477 10.6699 33.7692 10.6699C31.5604 10.6699 29.5776 11.6191 28.2238 13.122C27.5875 11.2142 26.5703 9.47213 25.2607 7.98358C27.5604 6.09375 30.5284 4.95361 33.768 4.95361C38.0627 4.95361 41.8772 6.95276 44.2911 10.0536C45.9901 12.2282 46.9963 14.9446 46.9963 17.8904C46.9963 20.8363 46.0184 23.471 44.3685 25.6311C41.957 28.7848 38.1057 30.8272 33.768 30.8272C30.4818 30.8272 27.4769 29.6559 25.1637 27.7156C24.5556 27.2062 23.9966 26.6439 23.4905 26.0372C21.7939 23.9924 20.7202 21.4286 20.5605 18.6281V18.6257L20.563 18.6269Z" fill="#4C29F2"/>
<path d="M128.58 8.97898L125.742 6.29477C124.94 5.53573 123.639 5.53573 122.836 6.29477L102.679 25.3609C101.877 26.1199 101.877 27.3505 102.679 28.1096L105.517 30.7938L128.58 8.97898Z" fill="#4C29F2"/>
<path d="M104.064 6.29479L101.227 8.979L124.289 30.7938L127.127 28.1096C127.929 27.3506 127.929 26.1199 127.127 25.3609L106.97 6.29479C106.168 5.53576 104.867 5.53576 104.064 6.29479Z" fill="#4C29F2"/>
</g>
<defs>
<clipPath id="clip0_215_5330">
<rect width="132" height="34.8221" fill="white"/>
</clipPath>
</defs>
</svg>
