<svg width="24" height="24" viewBox="0 0 24 24" fill="none" xmlns="http://www.w3.org/2000/svg">
<path d="M6 21.8C5.16667 21.8 4.45833 21.5083 3.875 20.925C3.29167 20.3417 3 19.6333 3 18.8V16.8C3 16.5167 3.09583 16.2792 3.2875 16.0875C3.47917 15.8958 3.71667 15.8 4 15.8H6V2.4C6 2.28333 6.05 2.20417 6.15 2.1625C6.25 2.12083 6.34167 2.14167 6.425 2.225L7.15 2.95C7.25 3.05 7.36667 3.1 7.5 3.1C7.63333 3.1 7.75 3.05 7.85 2.95L8.65 2.15C8.75 2.05 8.86667 2 9 2C9.13333 2 9.25 2.05 9.35 2.15L10.15 2.95C10.25 3.05 10.3667 3.1 10.5 3.1C10.6333 3.1 10.75 3.05 10.85 2.95L11.65 2.15C11.75 2.05 11.8667 2 12 2C12.1333 2 12.25 2.05 12.35 2.15L13.15 2.95C13.25 3.05 13.3667 3.1 13.5 3.1C13.6333 3.1 13.75 3.05 13.85 2.95L14.65 2.15C14.75 2.05 14.8667 2 15 2C15.1333 2 15.25 2.05 15.35 2.15L16.15 2.95C16.25 3.05 16.3667 3.1 16.5 3.1C16.6333 3.1 16.75 3.05 16.85 2.95L17.65 2.15C17.75 2.05 17.8667 2 18 2C18.1333 2 18.25 2.05 18.35 2.15L19.15 2.95C19.25 3.05 19.3667 3.1 19.5 3.1C19.6333 3.1 19.75 3.05 19.85 2.95L20.575 2.225C20.6583 2.14167 20.75 2.12083 20.85 2.1625C20.95 2.20417 21 2.28333 21 2.4V18.8C21 19.6333 20.7083 20.3417 20.125 20.925C19.5417 21.5083 18.8333 21.8 18 21.8H6ZM18 19.8C18.2833 19.8 18.5208 19.7042 18.7125 19.5125C18.9042 19.3208 19 19.0833 19 18.8V4.8H8V15.8H16C16.2833 15.8 16.5208 15.8958 16.7125 16.0875C16.9042 16.2792 17 16.5167 17 16.8V18.8C17 19.0833 17.0958 19.3208 17.2875 19.5125C17.4792 19.7042 17.7167 19.8 18 19.8ZM10 6.8H14C14.2833 6.8 14.5208 6.89583 14.7125 7.0875C14.9042 7.27917 15 7.51667 15 7.8C15 8.08333 14.9042 8.32083 14.7125 8.5125C14.5208 8.70417 14.2833 8.8 14 8.8H10C9.71667 8.8 9.47917 8.70417 9.2875 8.5125C9.09583 8.32083 9 8.08333 9 7.8C9 7.51667 9.09583 7.27917 9.2875 7.0875C9.47917 6.89583 9.71667 6.8 10 6.8ZM10 9.8H14C14.2833 9.8 14.5208 9.89583 14.7125 10.0875C14.9042 10.2792 15 10.5167 15 10.8C15 11.0833 14.9042 11.3208 14.7125 11.5125C14.5208 11.7042 14.2833 11.8 14 11.8H10C9.71667 11.8 9.47917 11.7042 9.2875 11.5125C9.09583 11.3208 9 11.0833 9 10.8C9 10.5167 9.09583 10.2792 9.2875 10.0875C9.47917 9.89583 9.71667 9.8 10 9.8ZM17 8.8C16.7167 8.8 16.4792 8.70417 16.2875 8.5125C16.0958 8.32083 16 8.08333 16 7.8C16 7.51667 16.0958 7.27917 16.2875 7.0875C16.4792 6.89583 16.7167 6.8 17 6.8C17.2833 6.8 17.5208 6.89583 17.7125 7.0875C17.9042 7.27917 18 7.51667 18 7.8C18 8.08333 17.9042 8.32083 17.7125 8.5125C17.5208 8.70417 17.2833 8.8 17 8.8ZM17 11.8C16.7167 11.8 16.4792 11.7042 16.2875 11.5125C16.0958 11.3208 16 11.0833 16 10.8C16 10.5167 16.0958 10.2792 16.2875 10.0875C16.4792 9.89583 16.7167 9.8 17 9.8C17.2833 9.8 17.5208 9.89583 17.7125 10.0875C17.9042 10.2792 18 10.5167 18 10.8C18 11.0833 17.9042 11.3208 17.7125 11.5125C17.5208 11.7042 17.2833 11.8 17 11.8ZM6 19.8H15V17.8H5V18.8C5 19.0833 5.09583 19.3208 5.2875 19.5125C5.47917 19.7042 5.71667 19.8 6 19.8Z" fill="#4C29F2"/>
</svg>
